<svg width="80" height="80" viewBox="0 0 80 80" fill="none" xmlns="http://www.w3.org/2000/svg">
<g clip-path="url(#clip0_854_64286)">
<path d="M66.9897 15.9789C64.8886 7.1875 56.8641 0.742188 47.6858 0.742188C41.4511 0.742188 35.6695 3.60547 31.9112 8.47609C23.7081 7.05938 15.5233 12.4517 13.3809 20.3322C5.95156 21.1492 0 27.4619 0 35.1019C0 43.2958 6.82125 49.9609 15.0153 49.9609H35.3125C36.608 49.9609 37.6562 48.9127 37.6562 47.6172V41.7578H42.3438V47.6172C42.3438 48.9127 43.392 49.9609 44.6875 49.9609H62.5448C72.0847 49.9609 80 42.2019 80 32.6644C80 24.7405 74.5291 17.9678 66.9897 15.9789V15.9789Z" fill="url(#paint0_linear_854_64286)"/>
<path d="M56.2278 61.9544C55.8662 61.0778 55.0101 60.5078 54.0626 60.5078H47.0314V39.4141C47.0314 38.1186 45.9831 37.0703 44.6876 37.0703H35.3126C34.0171 37.0703 32.9689 38.1186 32.9689 39.4141V60.5078H25.9376C24.9901 60.5078 24.134 61.0777 23.7724 61.9544C23.4109 62.8311 23.6123 63.8381 24.2806 64.5087L38.3431 78.5712C38.8009 79.0291 39.4006 79.258 40.0001 79.258C40.5996 79.258 41.1995 79.0291 41.6571 78.5712L55.7196 64.5087C56.3881 63.838 56.5895 62.8309 56.2278 61.9544ZM35.3126 32.3828H44.6876C45.9831 32.3828 47.0314 31.3345 47.0314 30.0391C47.0314 28.7436 45.9831 27.6953 44.6876 27.6953H35.3126C34.0171 27.6953 32.9689 28.7436 32.9689 30.0391C32.9689 31.3345 34.0171 32.3828 35.3126 32.3828V32.3828Z" fill="url(#paint1_linear_854_64286)"/>
</g>
<defs>
<linearGradient id="paint0_linear_854_64286" x1="40" y1="49.9609" x2="40" y2="0.742188" gradientUnits="userSpaceOnUse">
<stop stop-color="#5558FF"/>
<stop offset="1" stop-color="#00C0FF"/>
</linearGradient>
<linearGradient id="paint1_linear_854_64286" x1="40.0001" y1="79.2578" x2="40.0001" y2="27.6953" gradientUnits="userSpaceOnUse">
<stop stop-color="#ADDCFF"/>
<stop offset="0.5028" stop-color="#EAF6FF"/>
<stop offset="1" stop-color="#EAF6FF"/>
</linearGradient>
<clipPath id="clip0_854_64286">
<rect width="80" height="80" fill="white"/>
</clipPath>
</defs>
</svg>
