<svg width="80" height="80" viewBox="0 0 80 80" fill="none" xmlns="http://www.w3.org/2000/svg">
<path d="M54.0625 11.7188L49.375 0H16.5625C15.2498 0 14.2188 1.03109 14.2188 2.34375V35.1562C14.2188 36.4689 15.2498 37.5 16.5625 37.5H29.1719L33.2031 45.5623C33.625 46.3594 34.4219 46.875 35.3125 46.875H63.4375C64.7502 46.875 65.7812 45.8439 65.7812 44.5312V16.4062L54.0625 11.7188Z" fill="url(#paint0_linear_854_41117)"/>
<path d="M72.8125 42.1875H36.7591L32.7216 34.108C32.3233 33.3138 31.5131 32.8125 30.625 32.8125H7.1875C5.89203 32.8125 4.84375 33.8608 4.84375 35.1562V77.6562C4.84375 78.9517 5.89203 80 7.1875 80H72.8125C74.108 80 75.1562 78.9517 75.1562 77.6562V44.5312C75.1562 43.2358 74.108 42.1875 72.8125 42.1875ZM51.7188 16.4062H65.7812C65.7812 15.7969 65.5469 15.1875 65.078 14.7658L51.0155 0.703281C50.5937 0.234375 49.9844 0 49.375 0V14.0625C49.375 15.3569 50.4244 16.4062 51.7188 16.4062ZM25.9375 18.75H35.3125C36.608 18.75 37.6562 17.7017 37.6562 16.4062C37.6562 15.1108 36.608 14.0625 35.3125 14.0625H25.9375C24.642 14.0625 23.5938 15.1108 23.5938 16.4062C23.5938 17.7017 24.642 18.75 25.9375 18.75ZM25.9375 28.125H54.0625C55.358 28.125 56.4062 27.0767 56.4062 25.7812C56.4062 24.4858 55.358 23.4375 54.0625 23.4375H25.9375C24.642 23.4375 23.5938 24.4858 23.5938 25.7812C23.5938 27.0767 24.642 28.125 25.9375 28.125ZM54.0625 32.8125H44.6875C43.392 32.8125 42.3438 33.8608 42.3438 35.1562C42.3438 36.4517 43.392 37.5 44.6875 37.5H54.0625C55.358 37.5 56.4062 36.4517 56.4062 35.1562C56.4062 33.8608 55.358 32.8125 54.0625 32.8125Z" fill="url(#paint1_linear_854_41117)"/>
<defs>
<linearGradient id="paint0_linear_854_41117" x1="40" y1="46.875" x2="40" y2="0" gradientUnits="userSpaceOnUse">
<stop stop-color="#FFE59A"/>
<stop offset="1" stop-color="#FFFFD5"/>
</linearGradient>
<linearGradient id="paint1_linear_854_41117" x1="40" y1="80" x2="40" y2="0" gradientUnits="userSpaceOnUse">
<stop stop-color="#FD5900"/>
<stop offset="1" stop-color="#FFDE00"/>
</linearGradient>
</defs>
</svg>
