<svg width="80" height="80" viewBox="0 0 80 80" fill="none" xmlns="http://www.w3.org/2000/svg">
<g clip-path="url(#clip0_854_27230)">
<path d="M71.1147 0.091038C70.1097 -0.197086 69.0352 0.2151 68.4811 1.10182C67.6288 2.46556 66.2176 3.24775 64.6093 3.24775C63.001 3.24775 61.5898 2.46556 60.7374 1.10182C60.3091 0.416506 59.558 0.000256901 58.7499 0.000256901C57.9418 0.000256901 57.1907 0.416506 56.7624 1.10182C55.9101 2.46556 54.4988 3.24775 52.8906 3.24775C51.2823 3.24775 49.871 2.46556 49.0187 1.10182C48.5904 0.416506 47.8393 0.000256901 47.0312 0.000256901C46.2231 0.000256901 45.472 0.416506 45.0437 1.10182C44.1913 2.46556 42.7801 3.24775 41.1718 3.24775C39.5635 3.24775 38.1523 2.46556 37.3 1.10182C36.8717 0.416506 36.1206 0.000256901 35.3125 0.000256901C34.5043 0.000256901 33.7532 0.416506 33.325 1.10182C32.4726 2.46556 31.0614 3.24775 29.4531 3.24775C27.8448 3.24775 26.4336 2.46556 25.5812 1.10182C25.027 0.2151 23.9526 -0.197243 22.9476 0.091038C21.9426 0.379319 21.25 1.29838 21.25 2.344V61.2501L14.2188 80.0001H61.0937C67.5554 80.0001 72.8124 74.7431 72.8124 68.2814V2.344C72.8124 1.29838 72.1197 0.379162 71.1147 0.091038V0.091038Z" fill="url(#paint0_linear_854_27230)"/>
<path d="M32.9688 56.5626H61.0938C62.3881 56.5626 63.4375 55.5132 63.4375 54.2189C63.4375 52.9245 62.3881 51.8751 61.0938 51.8751H32.9688C31.6744 51.8751 30.625 52.9245 30.625 54.2189C30.625 55.5132 31.6744 56.5626 32.9688 56.5626V56.5626ZM47.0312 37.6564C45.7389 37.6564 44.6875 36.605 44.6875 35.3126C44.6875 34.0182 43.6381 32.9689 42.3438 32.9689C41.0494 32.9689 40 34.0182 40 35.3126C40 38.3681 41.9595 40.9732 44.6875 41.9407V44.8439C44.6875 46.1382 45.7369 47.1876 47.0312 47.1876C48.3256 47.1876 49.375 46.1382 49.375 44.8439V41.9407C52.103 40.9732 54.0625 38.3681 54.0625 35.3126C54.0625 31.4356 50.9083 28.2814 47.0312 28.2814C45.7389 28.2814 44.6875 27.23 44.6875 25.9376C44.6875 24.6453 45.7389 23.5939 47.0312 23.5939C48.3236 23.5939 49.375 24.6453 49.375 25.9376C49.375 27.232 50.4244 28.2814 51.7188 28.2814C53.0131 28.2814 54.0625 27.232 54.0625 25.9376C54.0625 22.8822 52.103 20.277 49.375 19.3095V16.5626C49.375 15.2682 48.3256 14.2189 47.0312 14.2189C45.7369 14.2189 44.6875 15.2682 44.6875 16.5626V19.3095C41.9595 20.277 40 22.8822 40 25.9376C40 29.8146 43.1542 32.9689 47.0312 32.9689C48.3236 32.9689 49.375 34.0203 49.375 35.3126C49.375 36.605 48.3236 37.6564 47.0312 37.6564ZM61.0938 61.2501H32.9688C31.6744 61.2501 30.625 62.2995 30.625 63.5939C30.625 64.8882 31.6744 65.9376 32.9688 65.9376H61.0938C62.3881 65.9376 63.4375 64.8882 63.4375 63.5939C63.4375 62.2995 62.3881 61.2501 61.0938 61.2501ZM7.1875 63.5939V72.9688C7.1875 76.8521 10.3355 80.0001 14.2188 80.0001C18.102 80.0001 21.25 76.8521 21.25 72.9688V61.2501H9.53125C8.23672 61.2501 7.1875 62.2995 7.1875 63.5939Z" fill="url(#paint1_linear_854_27230)"/>
<circle cx="47.4998" cy="28.75" r="18.75" fill="url(#paint2_linear_854_27230)"/>
<path d="M47.4306 10C37.1294 10 28.7498 18.4107 28.7498 28.75C28.7498 39.0893 37.1294 47.5 47.4306 47.5C57.7317 47.5 66.2498 39.0893 66.2498 28.75C66.2498 18.4107 57.7317 10 47.4306 10ZM55.8061 25.3728L45.7846 35.4314C45.3791 35.8383 44.848 36.0418 44.3171 36.0418C43.7861 36.0418 43.2549 35.8383 42.8496 35.4314L38.0172 30.5811C37.2065 29.7674 37.2065 28.4489 38.0172 27.6351C38.828 26.8214 40.1416 26.8214 40.9523 27.6351L44.3171 31.0124L52.871 22.4268C53.6817 21.6131 54.9953 21.6131 55.8061 22.4268C56.6168 23.2406 56.617 24.5589 55.8061 25.3728Z" fill="url(#paint3_linear_854_27230)"/>
</g>
<defs>
<linearGradient id="paint0_linear_854_27230" x1="43.5156" y1="79.9999" x2="43.5156" y2="-5.72204e-05" gradientUnits="userSpaceOnUse">
<stop stop-color="#00B59C"/>
<stop offset="1" stop-color="#9CFFAC"/>
</linearGradient>
<linearGradient id="paint1_linear_854_27230" x1="35.3125" y1="80.0001" x2="35.3125" y2="14.2189" gradientUnits="userSpaceOnUse">
<stop stop-color="#C3FFE8"/>
<stop offset="0.9973" stop-color="#F0FFF4"/>
</linearGradient>
<linearGradient id="paint2_linear_854_27230" x1="47.4998" y1="47.4999" x2="47.4998" y2="9.99997" gradientUnits="userSpaceOnUse">
<stop stop-color="#00B59C"/>
<stop offset="1" stop-color="#9CFFAC"/>
</linearGradient>
<linearGradient id="paint3_linear_854_27230" x1="35.0459" y1="68.3333" x2="35.0459" y2="10" gradientUnits="userSpaceOnUse">
<stop stop-color="#C3FFE8"/>
<stop offset="0.9973" stop-color="#F0FFF4"/>
</linearGradient>
<clipPath id="clip0_854_27230">
<rect width="80" height="80" fill="white"/>
</clipPath>
</defs>
</svg>
