<svg width="80" height="80" viewBox="0 0 80 80" fill="none" xmlns="http://www.w3.org/2000/svg">
<g clip-path="url(#clip0_854_762)">
<path d="M40 80C62.0914 80 80 62.0914 80 40C80 17.9086 62.0914 0 40 0C17.9086 0 0 17.9086 0 40C0 62.0914 17.9086 80 40 80Z" fill="url(#paint0_linear_854_762)"/>
<path d="M63.0393 24.9831C62.691 24.7197 62.2396 24.6328 61.8194 24.7605L42.5818 30.267H37.4179L18.1802 24.7605C17.7601 24.6328 17.3087 24.7183 16.9604 24.9831C16.6107 25.2466 16.406 25.658 16.406 26.0953V53.9066C16.406 54.5272 16.8166 55.0731 17.413 55.2442L36.8432 60.8066C36.9665 60.8419 37.0952 60.8595 37.2241 60.8595H42.7755C42.9043 60.8595 43.033 60.8419 43.1565 60.8066L62.5866 55.2442C63.1829 55.0731 63.5937 54.5272 63.5937 53.9066V26.0953C63.5937 25.658 63.389 25.2466 63.0393 24.9831V24.9831ZM41.3877 53.9066C41.3877 54.6752 40.7669 55.297 39.9999 55.297C39.2329 55.297 38.6121 54.6752 38.6121 53.9066V37.2198C38.6121 36.4513 39.2329 35.8294 39.9999 35.8294C40.7669 35.8294 41.3877 36.4513 41.3877 37.2198V53.9066ZM60.8179 20.5331C60.8179 20.1027 60.6187 19.6966 60.2785 19.4331C59.9383 19.1697 59.4965 19.0747 59.0818 19.1873C58.2399 19.5103 51.4087 20.4172 45.1338 26.6441L60.818 22.1548V20.5331H60.8179ZM20.918 19.1873C20.4993 19.0745 20.0615 19.1697 19.7213 19.4331C19.3812 19.6966 19.1819 20.1027 19.1819 20.5331V22.155L34.8663 26.6441C28.6259 20.4511 21.784 19.5195 20.918 19.1873V19.1873Z" fill="url(#paint1_linear_854_762)"/>
</g>
<defs>
<linearGradient id="paint0_linear_854_762" x1="40" y1="80" x2="40" y2="0" gradientUnits="userSpaceOnUse">
<stop stop-color="#ADDCFF"/>
<stop offset="0.5028" stop-color="#EAF6FF"/>
<stop offset="1" stop-color="#EAF6FF"/>
</linearGradient>
<linearGradient id="paint1_linear_854_762" x1="39.9999" y1="60.8594" x2="39.9999" y2="19.1406" gradientUnits="userSpaceOnUse">
<stop stop-color="#00C0FF"/>
<stop offset="1" stop-color="#5558FF"/>
</linearGradient>
<clipPath id="clip0_854_762">
<rect width="80" height="80" fill="white"/>
</clipPath>
</defs>
</svg>
