<svg width="80" height="80" viewBox="0 0 80 80" fill="none" xmlns="http://www.w3.org/2000/svg">
<g clip-path="url(#clip0_854_2111)">
<path d="M44.6875 80H35.3125C34.1645 80 33.1856 79.1686 32.9997 78.0358L31.5584 69.2553C29.3783 68.6269 27.2775 67.7547 25.2836 66.6502L18.1602 71.7381C17.2278 72.4039 15.9508 72.2983 15.1406 71.4881L8.51172 64.8594C7.70156 64.0492 7.59594 62.7722 8.26172 61.8398L13.3497 54.7164C12.2452 52.7225 11.373 50.6217 10.7445 48.4416L1.96422 47.0005C0.831406 46.8144 0 45.8355 0 44.6875V35.3125C0 34.1645 0.831406 33.1856 1.96422 32.9997L10.7445 31.5586C11.373 29.3784 12.2452 27.2777 13.3497 25.2837L8.26172 18.1603C7.59578 17.228 7.70156 15.9509 8.51172 15.1408L15.1406 8.51172C15.9508 7.70156 17.2278 7.59594 18.1602 8.26172L25.2836 13.3497C27.2775 12.2452 29.3783 11.373 31.5584 10.7445L32.9997 1.96406C33.1856 0.831406 34.1645 0 35.3125 0H44.6875C45.8355 0 46.8144 0.831406 47.0003 1.96422L48.4416 10.7445C50.6217 11.373 52.7225 12.2452 54.7164 13.3497L61.8398 8.26172C62.772 7.59578 64.0492 7.70141 64.8594 8.51172L71.4883 15.1406C72.2984 15.9508 72.4041 17.2278 71.7383 18.1602L66.6503 25.2836C67.7548 27.2777 68.627 29.3784 69.2555 31.5584L78.0358 32.9995C79.1686 33.1856 80 34.1645 80 35.3125V44.6875C80 45.8355 79.1686 46.8144 78.0358 47.0003L69.2555 48.4414C68.6272 50.6216 67.7548 52.7223 66.6503 54.7162L71.7383 61.8397C72.4042 62.772 72.2984 64.0491 71.4883 64.8592L64.8594 71.4883C64.0491 72.2984 62.7722 72.4041 61.8398 71.7383L54.7164 66.6503C52.7225 67.7548 50.6216 68.627 48.4416 69.2555L47.0003 78.0358C46.8144 79.1686 45.8355 80 44.6875 80V80ZM77.6562 44.6875H77.6578H77.6562Z" fill="url(#paint0_linear_854_2111)"/>
<path d="M40 56.4062C30.9536 56.4062 23.5938 49.0464 23.5938 40C23.5938 30.9536 30.9536 23.5938 40 23.5938C49.0464 23.5938 56.4062 30.9536 56.4062 40C56.4062 49.0464 49.0464 56.4062 40 56.4062Z" fill="url(#paint1_linear_854_2111)"/>
</g>
<defs>
<linearGradient id="paint0_linear_854_2111" x1="40" y1="80" x2="40" y2="0" gradientUnits="userSpaceOnUse">
<stop stop-color="#5558FF"/>
<stop offset="1" stop-color="#00C0FF"/>
</linearGradient>
<linearGradient id="paint1_linear_854_2111" x1="40" y1="56.4062" x2="40" y2="23.5938" gradientUnits="userSpaceOnUse">
<stop stop-color="#ADDCFF"/>
<stop offset="0.5028" stop-color="#EAF6FF"/>
<stop offset="1" stop-color="#EAF6FF"/>
</linearGradient>
<clipPath id="clip0_854_2111">
<rect width="80" height="80" fill="white"/>
</clipPath>
</defs>
</svg>
