<svg width="80" height="80" viewBox="0 0 80 80" fill="none" xmlns="http://www.w3.org/2000/svg">
<path d="M65 7.5H10C5.86426 7.5 2.5 10.8643 2.5 15V65C2.5 69.1357 5.86426 72.5 10 72.5H65C69.1357 72.5 72.5 69.1357 72.5 65V15C72.5 10.8643 69.1357 7.5 65 7.5Z" fill="url(#paint0_linear_854_32287)"/>
<path d="M65 7.5H10C5.86426 7.5 2.5 10.8643 2.5 15V27.5H72.5V15C72.5 10.8643 69.1357 7.5 65 7.5Z" fill="url(#paint1_linear_854_32287)"/>
<path d="M17.5 2.5H22.5V12.5H17.5V2.5Z" fill="url(#paint2_linear_854_32287)"/>
<path d="M52.5 2.5H57.5V12.5H52.5V2.5Z" fill="url(#paint3_linear_854_32287)"/>
<path d="M15 40H25V45H15V40Z" fill="url(#paint4_linear_854_32287)"/>
<path d="M15 55H25V60H15V55Z" fill="url(#paint5_linear_854_32287)"/>
<path d="M32.5 40H42.5V45H32.5V40Z" fill="url(#paint6_linear_854_32287)"/>
<path d="M32.5 55H42.5V60H32.5V55Z" fill="url(#paint7_linear_854_32287)"/>
<path d="M57.5 37.5C46.4722 37.5 37.5 46.4722 37.5 57.5C37.5 68.5278 46.4722 77.5 57.5 77.5C68.5278 77.5 77.5 68.5278 77.5 57.5C77.5 46.4722 68.5278 37.5 57.5 37.5Z" fill="url(#paint8_linear_854_32287)"/>
<path d="M60 60H47.5V55H55V45H60V60Z" fill="url(#paint9_linear_854_32287)"/>
<defs>
<linearGradient id="paint0_linear_854_32287" x1="2.5" y1="40" x2="72.5" y2="40" gradientUnits="userSpaceOnUse">
<stop stop-color="#BBDEFB"/>
<stop offset="1" stop-color="#64B5F6"/>
</linearGradient>
<linearGradient id="paint1_linear_854_32287" x1="2.5" y1="17.5" x2="72.5" y2="17.5" gradientUnits="userSpaceOnUse">
<stop stop-color="#42A5F5"/>
<stop offset="1" stop-color="#1E88E5"/>
</linearGradient>
<linearGradient id="paint2_linear_854_32287" x1="17.5" y1="7.5" x2="22.5" y2="7.5" gradientUnits="userSpaceOnUse">
<stop stop-color="#BBDEFB"/>
<stop offset="1" stop-color="#64B5F6"/>
</linearGradient>
<linearGradient id="paint3_linear_854_32287" x1="52.5" y1="7.5" x2="57.5" y2="7.5" gradientUnits="userSpaceOnUse">
<stop stop-color="#BBDEFB"/>
<stop offset="1" stop-color="#64B5F6"/>
</linearGradient>
<linearGradient id="paint4_linear_854_32287" x1="15" y1="42.5" x2="25" y2="42.5" gradientUnits="userSpaceOnUse">
<stop stop-color="#42A5F5"/>
<stop offset="1" stop-color="#1E88E5"/>
</linearGradient>
<linearGradient id="paint5_linear_854_32287" x1="15" y1="57.5" x2="25" y2="57.5" gradientUnits="userSpaceOnUse">
<stop stop-color="#42A5F5"/>
<stop offset="1" stop-color="#1E88E5"/>
</linearGradient>
<linearGradient id="paint6_linear_854_32287" x1="32.5" y1="42.5" x2="42.5" y2="42.5" gradientUnits="userSpaceOnUse">
<stop stop-color="#42A5F5"/>
<stop offset="1" stop-color="#1E88E5"/>
</linearGradient>
<linearGradient id="paint7_linear_854_32287" x1="32.5" y1="57.5" x2="42.5" y2="57.5" gradientUnits="userSpaceOnUse">
<stop stop-color="#42A5F5"/>
<stop offset="1" stop-color="#1E88E5"/>
</linearGradient>
<linearGradient id="paint8_linear_854_32287" x1="37.5" y1="57.5" x2="77.5" y2="57.5" gradientUnits="userSpaceOnUse">
<stop stop-color="#42A5F5"/>
<stop offset="1" stop-color="#1E88E5"/>
</linearGradient>
<linearGradient id="paint9_linear_854_32287" x1="47.5" y1="52.5" x2="60" y2="52.5" gradientUnits="userSpaceOnUse">
<stop stop-color="#BBDEFB"/>
<stop offset="1" stop-color="#64B5F6"/>
</linearGradient>
</defs>
</svg>
