<svg width="80" height="80" viewBox="0 0 80 80" fill="none" xmlns="http://www.w3.org/2000/svg">
<path d="M80 18.9062V11.875C80 7.99781 76.8459 4.84375 72.9688 4.84375H16.4062C12.5291 4.84375 9.375 7.99781 9.375 11.875V18.9062L14.4078 23.5938H15.592L9.375 28.2812H7.03125C3.15406 28.2812 0 31.4353 0 35.3125V68.125C0 72.0022 3.15406 75.1562 7.03125 75.1562H63.5938C67.4709 75.1562 70.625 72.0022 70.625 68.125V51.7188L75.3125 47.5741V30.625C75.3125 26.7478 72.1584 23.5938 68.2812 23.5938H73.0428L80 18.9062Z" fill="url(#paint0_linear_854_27196)"/>
<path d="M11.7188 42.3438H25.9375C27.233 42.3438 28.2812 41.2955 28.2812 40C28.2812 38.7045 27.233 37.6562 25.9375 37.6562H11.7188C10.4233 37.6562 9.375 38.7045 9.375 40C9.375 41.2955 10.4233 42.3438 11.7188 42.3438ZM35.3125 47.0312H11.7188C10.4233 47.0312 9.375 48.0795 9.375 49.375C9.375 50.6705 10.4233 51.7188 11.7188 51.7188H35.3125C36.608 51.7188 37.6562 50.6705 37.6562 49.375C37.6562 48.0795 36.608 47.0312 35.3125 47.0312ZM9.375 18.9062V28.2812H63.5938C67.4709 28.2812 70.625 31.4353 70.625 35.3125V51.7188H72.9688C76.8459 51.7188 80 48.5647 80 44.6875V18.9062H9.375Z" fill="url(#paint1_linear_854_27196)"/>
<defs>
<linearGradient id="paint0_linear_854_27196" x1="40" y1="75.1562" x2="40" y2="4.84375" gradientUnits="userSpaceOnUse">
<stop stop-color="#A93AFF"/>
<stop offset="1" stop-color="#FF81FF"/>
</linearGradient>
<linearGradient id="paint1_linear_854_27196" x1="44.6875" y1="63.3116" x2="44.6875" y2="17.0564" gradientUnits="userSpaceOnUse">
<stop stop-color="#FFBEF9"/>
<stop offset="1" stop-color="#FFF1FF"/>
</linearGradient>
</defs>
</svg>
