<svg width="80" height="80" viewBox="0 0 80 80" fill="none" xmlns="http://www.w3.org/2000/svg">
<path d="M68.125 0H16.5625C15.2681 0 14.2188 1.04906 14.2188 2.34375V75.3125H56.4062C56.4062 77.8906 63.2031 80 65.7812 80C68.3594 80 70.4688 77.8906 70.4688 75.3125V2.34375C70.4688 1.04906 69.4194 0 68.125 0Z" fill="url(#paint0_linear_854_13146)"/>
<path d="M25.9375 51.7188H58.75C60.0455 51.7188 61.0938 50.6705 61.0938 49.375C61.0938 48.0795 60.0455 47.0312 58.75 47.0312H25.9375C24.642 47.0312 23.5938 48.0795 23.5938 49.375C23.5938 50.6705 24.642 51.7188 25.9375 51.7188ZM25.9375 42.3438H58.75C60.0455 42.3438 61.0938 41.2955 61.0938 40C61.0938 38.7045 60.0455 37.6562 58.75 37.6562H31.5955L36.283 32.9688H44.6875C45.2955 32.9688 45.9077 32.7203 46.3475 32.2792L56.5691 22.0577C56.8998 22.9506 57.7412 23.5938 58.75 23.5938C60.0455 23.5938 61.0938 22.5455 61.0938 21.25V16.5625C61.0938 15.2702 60.0328 14.2188 58.75 14.2188H54.0625C52.767 14.2188 51.7188 15.267 51.7188 16.5625C51.7188 17.5712 52.3619 18.4127 53.2548 18.7434L43.717 28.2812H35.3125C34.7045 28.2812 34.0923 28.5297 33.6525 28.9708L28.2812 34.342V11.875C28.2812 10.5795 27.233 9.53125 25.9375 9.53125C24.642 9.53125 23.5938 10.5795 23.5938 11.875V40C23.5938 41.2822 24.6448 42.3438 25.9375 42.3438ZM25.9375 61.0938H58.75C60.0455 61.0938 61.0938 60.0455 61.0938 58.75C61.0938 57.4545 60.0455 56.4062 58.75 56.4062H25.9375C24.642 56.4062 23.5938 57.4545 23.5938 58.75C23.5938 60.0455 24.642 61.0938 25.9375 61.0938ZM61.0938 75.3125V72.9688C61.0938 71.6561 60.0627 70.625 58.75 70.625H14.2188C11.6406 70.625 9.53125 72.7344 9.53125 75.3125C9.53125 77.8906 11.6406 80 14.2188 80H65.7812C63.2031 80 61.0938 77.8906 61.0938 75.3125Z" fill="url(#paint1_linear_854_13146)"/>
<defs>
<linearGradient id="paint0_linear_854_13146" x1="42.3438" y1="80" x2="42.3438" y2="0" gradientUnits="userSpaceOnUse">
<stop stop-color="#00B59C"/>
<stop offset="1" stop-color="#9CFFAC"/>
</linearGradient>
<linearGradient id="paint1_linear_854_13146" x1="37.6562" y1="80" x2="37.6562" y2="9.53125" gradientUnits="userSpaceOnUse">
<stop stop-color="#C3FFE8"/>
<stop offset="0.9973" stop-color="#F0FFF4"/>
</linearGradient>
</defs>
</svg>
